# xmcd CD database file
#
# Track frame offsets:
#	150
#	54655
#	77517
#	133185
#	172027
#	184942
#	233395
#
# Disc length: 3592 seconds
#
# Revision: 0
# Processed by: cddbd v1.4PL0 Copyright (c) Steve Scherf et al.
# Submitted via: NeoAudio 9.9.9
#
DISCID=550e0607
DTITLE=Jeanne Lee - Natural Affinities
DYEAR=1992
DGENRE=Jazz
TTITLE0=Mingus Meditations
TTITLE1=I Thougt About You
TTITLE2=Journey To Edanares
TTITLE3=Peace Chorale
TTITLE4=Free Space
TTITLE5=Trilogy
TTITLE6=Ambrosia Mama - Celebration of a State of Grace
EXTD=YEAR: 1992
EXTT0=
EXTT1=
EXTT2=
EXTT3=
EXTT4=
EXTT5=
EXTT6=
PLAYORDER=
